# xmcd CD database file
#
# Track frame offsets:
#	150
#	15952
#	33613
#	44596
#	59404
#	77791
#	90846
#	111868
#	124286
#	142232
#
# Disc length: 2061 seconds
#
# Revision: 0
# Processed by: cddbd v1.5.1PL2 Copyright (c) Steve Scherf et al.
# Submitted via: CDex 1.51
#
DISCID=85080b0a
DTITLE=Townes van Zandt - Delta Momma Blues
DYEAR=1971
DGENRE=Blues
TTITLE0=F.F.V.
TTITLE1=Delta Momma Blues
TTITLE2=Only Him or Me
TTITLE3=Turnstyled, Junkpiled
TTITLE4=Tower Song
TTITLE5=Come Tomorrow
TTITLE6=Brand New Companion
TTITLE7=Where I Lead Me
TTITLE8=Rake
TTITLE9=Nothin'
EXTD=YEAR: 1971
EXTT0=
EXTT1=
EXTT2=
EXTT3=
EXTT4=
EXTT5=
EXTT6=
EXTT7=
EXTT8=
EXTT9=
PLAYORDER=
